<svg width="32" height="33" viewBox="0 0 32 33" fill="none" xmlns="http://www.w3.org/2000/svg">
<rect y="0.5" width="32" height="32" rx="4" fill="#CBDAF3"/>
<g clip-path="url(#clip0_4526_17628)">
<path d="M20.6667 9.83333H20V9.16667C20 8.98986 19.9298 8.82029 19.8047 8.69526C19.6797 8.57024 19.5101 8.5 19.3333 8.5C19.1565 8.5 18.987 8.57024 18.8619 8.69526C18.7369 8.82029 18.6667 8.98986 18.6667 9.16667V9.83333H13.3333V9.16667C13.3333 8.98986 13.2631 8.82029 13.1381 8.69526C13.013 8.57024 12.8435 8.5 12.6667 8.5C12.4899 8.5 12.3203 8.57024 12.1953 8.69526C12.0702 8.82029 12 8.98986 12 9.16667V9.83333H11.3333C10.4496 9.83439 9.60237 10.1859 8.97748 10.8108C8.35259 11.4357 8.00106 12.2829 8 13.1667L8 21.1667C8.00106 22.0504 8.35259 22.8976 8.97748 23.5225C9.60237 24.1474 10.4496 24.4989 11.3333 24.5H20.6667C21.5504 24.4989 22.3976 24.1474 23.0225 23.5225C23.6474 22.8976 23.9989 22.0504 24 21.1667V13.1667C23.9989 12.2829 23.6474 11.4357 23.0225 10.8108C22.3976 10.1859 21.5504 9.83439 20.6667 9.83333ZM9.33333 13.1667C9.33333 12.6362 9.54405 12.1275 9.91912 11.7525C10.2942 11.3774 10.8029 11.1667 11.3333 11.1667H20.6667C21.1971 11.1667 21.7058 11.3774 22.0809 11.7525C22.456 12.1275 22.6667 12.6362 22.6667 13.1667V13.8333H9.33333V13.1667ZM20.6667 23.1667H11.3333C10.8029 23.1667 10.2942 22.956 9.91912 22.5809C9.54405 22.2058 9.33333 21.6971 9.33333 21.1667V15.1667H22.6667V21.1667C22.6667 21.6971 22.456 22.2058 22.0809 22.5809C21.7058 22.956 21.1971 23.1667 20.6667 23.1667Z" fill="#487ED4"/>
<path d="M16 19.5C16.5523 19.5 17 19.0523 17 18.5C17 17.9477 16.5523 17.5 16 17.5C15.4477 17.5 15 17.9477 15 18.5C15 19.0523 15.4477 19.5 16 19.5Z" fill="#487ED4"/>
<path d="M12.668 19.5C13.2203 19.5 13.668 19.0523 13.668 18.5C13.668 17.9477 13.2203 17.5 12.668 17.5C12.1157 17.5 11.668 17.9477 11.668 18.5C11.668 19.0523 12.1157 19.5 12.668 19.5Z" fill="#487ED4"/>
<path d="M19.332 19.5C19.8843 19.5 20.332 19.0523 20.332 18.5C20.332 17.9477 19.8843 17.5 19.332 17.5C18.7797 17.5 18.332 17.9477 18.332 18.5C18.332 19.0523 18.7797 19.5 19.332 19.5Z" fill="#487ED4"/>
</g>
<defs>
<clipPath id="clip0_4526_17628">
<rect width="16" height="16" fill="white" transform="translate(8 8.5)"/>
</clipPath>
</defs>
</svg>
