<svg width="30" height="30" viewBox="0 0 30 30" fill="none" xmlns="http://www.w3.org/2000/svg">
<g clip-path="url(#clip0_4280_12306)">
<path d="M28.1267 4.97266H24.2692C24.022 4.97271 23.7804 5.04605 23.5749 5.1834C23.3694 5.32076 23.2092 5.51596 23.1146 5.74434C23.02 5.97271 22.9953 6.224 23.0435 6.46645C23.0917 6.70889 23.2107 6.93159 23.3855 7.10641L24.743 8.46391L20.2605 12.9452C20.0223 13.1728 19.7056 13.2998 19.3761 13.2998C19.0467 13.2998 18.7299 13.1728 18.4917 12.9452L18.2792 12.7314C17.565 12.049 16.6152 11.6682 15.6274 11.6682C14.6395 11.6682 13.6897 12.049 12.9755 12.7314L6.60048 19.1064C6.3656 19.342 6.23391 19.6612 6.23438 19.9938C6.23485 20.3264 6.36744 20.6453 6.60298 20.8802C6.83853 21.115 7.15773 21.2467 7.49037 21.2463C7.82302 21.2458 8.14185 21.1132 8.37673 20.8777L14.7517 14.5027C14.9898 14.2748 15.3066 14.1475 15.6361 14.1475C15.9656 14.1475 16.2825 14.2748 16.5205 14.5027L16.733 14.7164C17.4475 15.3982 18.3972 15.7787 19.3849 15.7787C20.3725 15.7787 21.3222 15.3982 22.0367 14.7164L26.5192 10.2339L27.8767 11.5914C28.0521 11.7633 28.2743 11.8798 28.5155 11.9262C28.7567 11.9726 29.0062 11.947 29.2329 11.8524C29.4596 11.7579 29.6534 11.5987 29.7901 11.3946C29.9269 11.1906 30.0005 10.9508 30.0017 10.7052V6.84766C30.0017 6.35038 29.8042 5.87346 29.4526 5.52183C29.1009 5.1702 28.624 4.97266 28.1267 4.97266Z" fill="#55AA73"/>
<path d="M28.75 27.47H6.25C5.25544 27.47 4.30161 27.0749 3.59835 26.3717C2.89509 25.6684 2.5 24.7146 2.5 23.72V1.25C2.5 0.918479 2.3683 0.600537 2.13388 0.366117C1.89946 0.131696 1.58152 0 1.25 0C0.918479 0 0.600537 0.131696 0.366117 0.366117C0.131696 0.600537 0 0.918479 0 1.25L0 23.72C0.00198482 25.377 0.661102 26.9656 1.83277 28.1372C3.00445 29.3089 4.59301 29.968 6.25 29.97H28.75C29.0815 29.97 29.3995 29.8383 29.6339 29.6039C29.8683 29.3695 30 29.0515 30 28.72C30 28.3885 29.8683 28.0705 29.6339 27.8361C29.3995 27.6017 29.0815 27.47 28.75 27.47Z" fill="#55AA73"/>
</g>
<defs>
<clipPath id="clip0_4280_12306">
<rect width="30" height="30" fill="white"/>
</clipPath>
</defs>
</svg>
