<svg width="33" height="33" viewBox="0 0 33 33" fill="none" xmlns="http://www.w3.org/2000/svg">
<rect x="0.5" y="0.25" width="32" height="32" rx="4" fill="#55AA73"/>
<g clip-path="url(#clip0_3160_19776)">
<path d="M24.5 18.9171V22.2504C24.5 22.7808 24.2893 23.2896 23.9142 23.6646C23.5391 24.0397 23.0304 24.2504 22.5 24.2504H19.1667C18.2314 24.2495 17.3128 24.0026 16.5031 23.5345C15.6934 23.0665 15.021 22.3937 14.5533 21.5837C15.0559 21.5802 15.5568 21.5247 16.048 21.4184C16.4221 21.8862 16.8967 22.2638 17.4365 22.5232C17.9764 22.7826 18.5677 22.9172 19.1667 22.9171H22.5C22.6768 22.9171 22.8464 22.8468 22.9714 22.7218C23.0964 22.5968 23.1667 22.4272 23.1667 22.2504V18.9171C23.1665 18.3179 23.0315 17.7264 22.7716 17.1866C22.5117 16.6467 22.1336 16.1723 21.6653 15.7984C21.7726 15.3073 21.8289 14.8064 21.8333 14.3037C22.6433 14.7714 23.3161 15.4438 23.7841 16.2535C24.2522 17.0632 24.499 17.9818 24.5 18.9171ZM20.4847 14.6844C20.547 13.8255 20.4237 12.9632 20.1232 12.1562C19.8227 11.3492 19.352 10.6163 18.7431 10.0074C18.1341 9.39842 17.4012 8.9277 16.5942 8.62719C15.7872 8.32667 14.9249 8.2034 14.066 8.26575C12.5439 8.43957 11.138 9.16386 10.1128 10.3022C9.08762 11.4406 8.51402 12.9145 8.5 14.4464V17.8064C8.5 19.4944 9.50467 20.2504 10.5 20.2504H14.3C15.8325 20.2372 17.3073 19.664 18.4465 18.6388C19.5857 17.6136 20.3106 16.2071 20.4847 14.6844ZM17.8 10.9511C18.2733 11.4254 18.6392 11.9959 18.8729 12.6239C19.1066 13.2519 19.2027 13.9227 19.1547 14.5911C19.0124 15.7802 18.4403 16.8763 17.5462 17.673C16.6521 18.4698 15.4976 18.9122 14.3 18.9171H10.5C9.88133 18.9171 9.83333 18.0671 9.83333 17.8064V14.4464C9.83889 13.2493 10.2818 12.0956 11.0786 11.2022C11.8755 10.3088 12.9713 9.73753 14.16 9.59575C14.2707 9.58775 14.3813 9.58375 14.492 9.58375C15.1062 9.58318 15.7145 9.70364 16.2821 9.93825C16.8497 10.1729 17.3655 10.517 17.8 10.9511Z" fill="white"/>
</g>
<defs>
<clipPath id="clip0_3160_19776">
<rect width="16" height="16" fill="white" transform="translate(8.5 8.25)"/>
</clipPath>
</defs>
</svg>
