<svg width="32" height="33" viewBox="0 0 32 33" fill="none" xmlns="http://www.w3.org/2000/svg">
<rect y="0.5" width="32" height="32" rx="4" fill="#CBDAF3"/>
<g clip-path="url(#clip0_4526_17639)">
<path d="M16 8.5C14.4178 8.5 12.871 8.96919 11.5554 9.84824C10.2398 10.7273 9.21447 11.9767 8.60897 13.4385C8.00347 14.9003 7.84504 16.5089 8.15372 18.0607C8.4624 19.6126 9.22433 21.038 10.3431 22.1569C11.462 23.2757 12.8874 24.0376 14.4393 24.3463C15.9911 24.655 17.5997 24.4965 19.0615 23.891C20.5233 23.2855 21.7727 22.2602 22.6518 20.9446C23.5308 19.629 24 18.0823 24 16.5C23.9977 14.379 23.1541 12.3455 21.6543 10.8457C20.1545 9.34589 18.121 8.50229 16 8.5V8.5ZM16 23.1667C14.6815 23.1667 13.3925 22.7757 12.2962 22.0431C11.1999 21.3106 10.3454 20.2694 9.84081 19.0512C9.33622 17.833 9.2042 16.4926 9.46144 15.1994C9.71867 13.9062 10.3536 12.7183 11.286 11.786C12.2183 10.8536 13.4062 10.2187 14.6994 9.96143C15.9926 9.7042 17.3331 9.83622 18.5512 10.3408C19.7694 10.8454 20.8106 11.6999 21.5431 12.7962C22.2757 13.8925 22.6667 15.1815 22.6667 16.5C22.6647 18.2675 21.9617 19.9621 20.7119 21.2119C19.4621 22.4617 17.7675 23.1647 16 23.1667Z" fill="#487ED4"/>
<path d="M16.0016 12.5C15.8248 12.5 15.6552 12.5702 15.5302 12.6953C15.4052 12.8203 15.3349 12.9899 15.3349 13.1667V16.05L13.0876 17.458C12.9373 17.5519 12.8305 17.7016 12.7906 17.8743C12.7507 18.0469 12.781 18.2284 12.8749 18.3787C12.9688 18.5289 13.1186 18.6358 13.2912 18.6757C13.4639 18.7155 13.6453 18.6852 13.7956 18.5913L16.3556 16.9913C16.4523 16.9307 16.5319 16.8463 16.5866 16.7461C16.6414 16.646 16.6695 16.5335 16.6683 16.4193V13.1667C16.6683 12.9899 16.598 12.8203 16.473 12.6953C16.348 12.5702 16.1784 12.5 16.0016 12.5Z" fill="#487ED4"/>
</g>
<defs>
<clipPath id="clip0_4526_17639">
<rect width="16" height="16" fill="white" transform="translate(8 8.5)"/>
</clipPath>
</defs>
</svg>
