<svg width="25" height="24" viewBox="0 0 25 24" fill="none" xmlns="http://www.w3.org/2000/svg">
<path d="M19.242 8.20986C19.1491 8.11613 19.0385 8.04174 18.9166 7.99097C18.7948 7.9402 18.6641 7.91406 18.532 7.91406C18.4 7.91406 18.2693 7.9402 18.1475 7.99097C18.0256 8.04174 17.915 8.11613 17.822 8.20986L13.242 12.7899C13.1491 12.8836 13.0385 12.958 12.9166 13.0087C12.7948 13.0595 12.6641 13.0856 12.532 13.0856C12.4 13.0856 12.2693 13.0595 12.1475 13.0087C12.0256 12.958 11.915 12.8836 11.822 12.7899L7.24204 8.20986C7.14908 8.11613 7.03848 8.04174 6.91662 7.99097C6.79476 7.9402 6.66405 7.91406 6.53204 7.91406C6.40003 7.91406 6.26933 7.9402 6.14747 7.99097C6.02561 8.04174 5.91501 8.11613 5.82204 8.20986C5.63579 8.39722 5.53125 8.65067 5.53125 8.91486C5.53125 9.17904 5.63579 9.4325 5.82204 9.61986L10.412 14.2098C10.9745 14.7716 11.737 15.0872 12.532 15.0872C13.327 15.0872 14.0895 14.7716 14.652 14.2098L19.242 9.61986C19.4283 9.4325 19.5328 9.17904 19.5328 8.91486C19.5328 8.65067 19.4283 8.39722 19.242 8.20986Z" fill="#4F4F4F"/>
</svg>
