<svg width="16" height="16" viewBox="0 0 16 16" fill="none" xmlns="http://www.w3.org/2000/svg">
<path d="M12.4726 5.47454C12.4106 5.41206 12.3369 5.36246 12.2556 5.32861C12.1744 5.29477 12.0872 5.27734 11.9992 5.27734C11.9112 5.27734 11.8241 5.29477 11.7428 5.32861C11.6616 5.36246 11.5879 5.41206 11.5259 5.47454L8.47256 8.52787C8.41058 8.59035 8.33685 8.63995 8.25561 8.6738C8.17437 8.70764 8.08723 8.72507 7.99923 8.72507C7.91122 8.72507 7.82408 8.70764 7.74284 8.6738C7.6616 8.63995 7.58787 8.59035 7.52589 8.52787L4.47256 5.47454C4.41058 5.41206 4.33685 5.36246 4.25561 5.32861C4.17437 5.29477 4.08723 5.27734 3.99923 5.27734C3.91122 5.27734 3.82408 5.29477 3.74284 5.32861C3.6616 5.36246 3.58787 5.41206 3.52589 5.47454C3.40173 5.59945 3.33203 5.76842 3.33203 5.94454C3.33203 6.12066 3.40173 6.28963 3.52589 6.41454L6.58589 9.47453C6.96089 9.84907 7.46922 10.0594 7.99923 10.0594C8.52923 10.0594 9.03756 9.84907 9.41256 9.47453L12.4726 6.41454C12.5967 6.28963 12.6664 6.12066 12.6664 5.94454C12.6664 5.76842 12.5967 5.59945 12.4726 5.47454Z" fill="white"/>
</svg>
