<svg width="13" height="12" viewBox="0 0 13 12" fill="none" xmlns="http://www.w3.org/2000/svg">
<path d="M3.70493 4.5H9.29494C9.39382 4.50041 9.49036 4.53014 9.57236 4.58542C9.65435 4.6407 9.71811 4.71906 9.75557 4.81057C9.79303 4.90209 9.80252 5.00266 9.78282 5.09957C9.76313 5.19647 9.71515 5.28536 9.64494 5.355L6.85494 8.14499C6.80845 8.19186 6.75315 8.22905 6.69222 8.25444C6.63129 8.27982 6.56594 8.29289 6.49994 8.29289C6.43393 8.29289 6.36858 8.27982 6.30765 8.25444C6.24672 8.22905 6.19142 8.19186 6.14494 8.14499L3.35494 5.355C3.28472 5.28536 3.23674 5.19647 3.21705 5.09957C3.19735 5.00266 3.20684 4.90209 3.2443 4.81057C3.28176 4.71906 3.34552 4.6407 3.42751 4.58542C3.50951 4.53014 3.60605 4.50041 3.70493 4.5Z" fill="#4F4F4F"/>
</svg>
