<svg width="25" height="24" viewBox="0 0 25 24" fill="none" xmlns="http://www.w3.org/2000/svg">
<g clip-path="url(#clip0_3160_18185)">
<path d="M5.28133 16.7469C4.7812 17.2469 4.50015 17.925 4.5 18.6322V20.0009H5.86867C6.57585 20.0007 7.25402 19.7197 7.754 19.2195L16.6493 10.3242L14.1767 7.85156L5.28133 16.7469Z" fill="#4F4F4F"/>
<path d="M19.9318 4.57122C19.7694 4.40871 19.5766 4.27979 19.3644 4.19183C19.1522 4.10387 18.9248 4.05859 18.6951 4.05859C18.4654 4.05859 18.2379 4.10387 18.0257 4.19183C17.8135 4.27979 17.6208 4.40871 17.4584 4.57122L15.1211 6.90922L17.5938 9.38188L19.9318 7.04455C20.0943 6.88221 20.2232 6.68943 20.3111 6.47723C20.3991 6.26504 20.4444 6.03759 20.4444 5.80788C20.4444 5.57818 20.3991 5.35073 20.3111 5.13853C20.2232 4.92633 20.0943 4.73356 19.9318 4.57122Z" fill="#4F4F4F"/>
</g>
<defs>
<clipPath id="clip0_3160_18185">
<rect width="16" height="16" fill="white" transform="translate(4.5 4)"/>
</clipPath>
</defs>
</svg>
