<svg width="33" height="33" viewBox="0 0 33 33" fill="none" xmlns="http://www.w3.org/2000/svg">
<rect x="0.5" y="0.5" width="32" height="32" rx="12" fill="#CBDAF3"/>
<g clip-path="url(#clip0_3160_21087)">
<path d="M23.1263 11.1134L20.2213 8.20835C19.681 7.66509 19.0382 7.23437 18.3303 6.94114C17.6224 6.64791 16.8634 6.49797 16.0971 6.50002H12.3346C11.23 6.50134 10.1709 6.94076 9.38982 7.72187C8.6087 8.50299 8.16929 9.56203 8.16797 10.6667V22.3334C8.16929 23.438 8.6087 24.4971 9.38982 25.2782C10.1709 26.0593 11.23 26.4987 12.3346 26.5H20.668C21.7726 26.4987 22.8317 26.0593 23.6128 25.2782C24.3939 24.4971 24.8333 23.438 24.8346 22.3334V15.2375C24.8367 14.4713 24.6868 13.7123 24.3935 13.0043C24.1003 12.2964 23.6696 11.6537 23.1263 11.1134ZM21.948 12.2917C22.2022 12.5537 22.421 12.8479 22.5988 13.1667H19.0013C18.7803 13.1667 18.5683 13.0789 18.412 12.9226C18.2558 12.7663 18.168 12.5544 18.168 12.3334V8.73585C18.4868 8.91367 18.781 9.13248 19.043 9.38669L21.948 12.2917ZM23.168 22.3334C23.168 22.9964 22.9046 23.6323 22.4357 24.1011C21.9669 24.57 21.331 24.8334 20.668 24.8334H12.3346C11.6716 24.8334 11.0357 24.57 10.5669 24.1011C10.098 23.6323 9.83464 22.9964 9.83464 22.3334V10.6667C9.83464 10.0036 10.098 9.36776 10.5669 8.89892C11.0357 8.43008 11.6716 8.16669 12.3346 8.16669H16.0971C16.2346 8.16669 16.3663 8.19335 16.5013 8.20585V12.3334C16.5013 12.9964 16.7647 13.6323 17.2335 14.1011C17.7024 14.57 18.3383 14.8334 19.0013 14.8334H23.1288C23.1413 14.9684 23.168 15.1 23.168 15.2375V22.3334ZM20.438 17.5925C20.5901 17.7526 20.6725 17.9665 20.6671 18.1873C20.6616 18.4081 20.5687 18.6177 20.4088 18.77L17.418 21.615C16.9478 22.0778 16.3139 22.3359 15.6542 22.3333C14.9946 22.3306 14.3627 22.0674 13.8963 21.6009L12.613 20.4559C12.4479 20.3087 12.348 20.1019 12.3354 19.8811C12.3291 19.7717 12.3444 19.6622 12.3805 19.5588C12.4165 19.4554 12.4726 19.3601 12.5455 19.2784C12.6184 19.1966 12.7066 19.13 12.8052 19.0824C12.9039 19.0347 13.0109 19.007 13.1202 19.0007C13.3411 18.9881 13.5579 19.0637 13.723 19.2109L15.0438 20.3892C15.1194 20.4741 15.2116 20.5426 15.3147 20.5906C15.4178 20.6385 15.5296 20.6649 15.6433 20.668C15.7569 20.6711 15.87 20.651 15.9756 20.6088C16.0812 20.5665 16.177 20.5032 16.2571 20.4225L19.2571 17.5634C19.3365 17.4875 19.43 17.4281 19.5324 17.3885C19.6347 17.3489 19.7439 17.3299 19.8536 17.3326C19.9633 17.3353 20.0714 17.3597 20.1717 17.4043C20.272 17.4489 20.3625 17.5128 20.438 17.5925Z" fill="#2A5EB3"/>
</g>
<defs>
<clipPath id="clip0_3160_21087">
<rect width="20" height="20" fill="white" transform="translate(6.5 6.5)"/>
</clipPath>
</defs>
</svg>
