<svg width="32" height="33" viewBox="0 0 32 33" fill="none" xmlns="http://www.w3.org/2000/svg">
<rect y="0.25" width="32" height="32" rx="4" fill="#306CCC"/>
<g clip-path="url(#clip0_3160_19796)">
<path d="M21.2987 11.9407L18.9747 9.61668C18.5424 9.18207 18.0282 8.8375 17.4619 8.60291C16.8956 8.36833 16.2884 8.24838 15.6754 8.25002H12.6654C11.7816 8.25108 10.9344 8.6026 10.3095 9.2275C9.68462 9.85239 9.33309 10.6996 9.33203 11.5833V20.9167C9.33309 21.8004 9.68462 22.6476 10.3095 23.2725C10.9344 23.8974 11.7816 24.249 12.6654 24.25H19.332C20.2158 24.249 21.063 23.8974 21.6879 23.2725C22.3128 22.6476 22.6643 21.8004 22.6654 20.9167V15.24C22.667 14.627 22.5471 14.0198 22.3125 13.4535C22.0779 12.8871 21.7333 12.373 21.2987 11.9407ZM20.356 12.8833C20.5594 13.093 20.7344 13.3283 20.8767 13.5834H17.9987C17.8219 13.5834 17.6523 13.5131 17.5273 13.3881C17.4023 13.2631 17.332 13.0935 17.332 12.9167V10.0387C17.5871 10.1809 17.8224 10.356 18.032 10.5594L20.356 12.8833ZM21.332 20.9167C21.332 21.4471 21.1213 21.9558 20.7462 22.3309C20.3712 22.706 19.8625 22.9167 19.332 22.9167H12.6654C12.1349 22.9167 11.6262 22.706 11.2512 22.3309C10.8761 21.9558 10.6654 21.4471 10.6654 20.9167V11.5833C10.6654 11.0529 10.8761 10.5442 11.2512 10.1691C11.6262 9.79406 12.1349 9.58335 12.6654 9.58335H15.6754C15.7854 9.58335 15.8907 9.60468 15.9987 9.61468V12.9167C15.9987 13.4471 16.2094 13.9558 16.5845 14.3309C16.9596 14.706 17.4683 14.9167 17.9987 14.9167H21.3007C21.3107 15.0247 21.332 15.13 21.332 15.24V20.9167ZM19.148 17.124C19.2698 17.2521 19.3357 17.4232 19.3313 17.5998C19.3269 17.7765 19.2526 17.9441 19.1247 18.066L16.732 20.342C16.3559 20.7122 15.8488 20.9187 15.321 20.9166C14.7933 20.9145 14.2878 20.7039 13.9147 20.3307L12.888 19.4147C12.756 19.2969 12.6761 19.1315 12.6659 18.9549C12.6609 18.8674 12.6732 18.7798 12.702 18.6971C12.7309 18.6143 12.7757 18.5381 12.834 18.4727C12.8923 18.4073 12.963 18.354 13.0419 18.3159C13.1207 18.2778 13.2064 18.2556 13.2938 18.2506C13.4705 18.2405 13.644 18.3009 13.776 18.4187L14.8327 19.3614C14.8932 19.4293 14.9669 19.4841 15.0494 19.5225C15.1319 19.5608 15.2213 19.5819 15.3123 19.5844C15.4032 19.5869 15.4937 19.5708 15.5781 19.537C15.6626 19.5032 15.7392 19.4525 15.8034 19.388L18.2034 17.1007C18.2668 17.04 18.3417 16.9925 18.4235 16.9608C18.5054 16.9291 18.5928 16.9139 18.6805 16.9161C18.7683 16.9182 18.8548 16.9377 18.935 16.9734C19.0153 17.0091 19.0876 17.0603 19.148 17.124Z" fill="white"/>
</g>
<defs>
<clipPath id="clip0_3160_19796">
<rect width="16" height="16" fill="white" transform="translate(8 8.25)"/>
</clipPath>
</defs>
</svg>
