<svg width="32" height="33" viewBox="0 0 32 33" fill="none" xmlns="http://www.w3.org/2000/svg">
<rect y="0.25" width="32" height="32" rx="4" fill="#55AA73"/>
<g clip-path="url(#clip0_3160_19802)">
<path d="M19.332 17.5833C19.332 17.7602 19.2618 17.9297 19.1368 18.0548C19.0117 18.1798 18.8422 18.25 18.6654 18.25H13.332C13.1552 18.25 12.9857 18.1798 12.8606 18.0548C12.7356 17.9297 12.6654 17.7602 12.6654 17.5833C12.6654 17.4065 12.7356 17.237 12.8606 17.1119C12.9857 16.9869 13.1552 16.9167 13.332 16.9167H18.6654C18.8422 16.9167 19.0117 16.9869 19.1368 17.1119C19.2618 17.237 19.332 17.4065 19.332 17.5833ZM16.6654 19.5833H13.332C13.1552 19.5833 12.9857 19.6536 12.8606 19.7786C12.7356 19.9036 12.6654 20.0732 12.6654 20.25C12.6654 20.4268 12.7356 20.5964 12.8606 20.7214C12.9857 20.8464 13.1552 20.9167 13.332 20.9167H16.6654C16.8422 20.9167 17.0117 20.8464 17.1368 20.7214C17.2618 20.5964 17.332 20.4268 17.332 20.25C17.332 20.0732 17.2618 19.9036 17.1368 19.7786C17.0117 19.6536 16.8422 19.5833 16.6654 19.5833ZM22.6654 15.24V20.9167C22.6643 21.8004 22.3128 22.6476 21.6879 23.2725C21.063 23.8974 20.2158 24.249 19.332 24.25H12.6654C11.7816 24.249 10.9344 23.8974 10.3095 23.2725C9.68462 22.6476 9.33309 21.8004 9.33203 20.9167V11.5833C9.33309 10.6996 9.68462 9.85239 10.3095 9.2275C10.9344 8.6026 11.7816 8.25107 12.6654 8.25002H15.6754C16.2884 8.24844 16.8958 8.36841 17.4622 8.60299C18.0286 8.83757 18.5429 9.18211 18.9754 9.61668L21.298 11.9407C21.7329 12.3728 22.0776 12.887 22.3123 13.4533C22.547 14.0197 22.667 14.627 22.6654 15.24ZM18.0327 10.5593C17.8229 10.3561 17.5873 10.1813 17.332 10.0393V12.9167C17.332 13.0935 17.4023 13.2631 17.5273 13.3881C17.6523 13.5131 17.8219 13.5833 17.9987 13.5833H20.876C20.734 13.3281 20.5589 13.0928 20.3554 12.8833L18.0327 10.5593ZM21.332 15.24C21.332 15.13 21.3107 15.0247 21.3007 14.9167H17.9987C17.4683 14.9167 16.9596 14.706 16.5845 14.3309C16.2094 13.9558 15.9987 13.4471 15.9987 12.9167V9.61468C15.8907 9.60468 15.7847 9.58335 15.6754 9.58335H12.6654C12.1349 9.58335 11.6262 9.79406 11.2512 10.1691C10.8761 10.5442 10.6654 11.0529 10.6654 11.5833V20.9167C10.6654 21.4471 10.8761 21.9558 11.2512 22.3309C11.6262 22.706 12.1349 22.9167 12.6654 22.9167H19.332C19.8625 22.9167 20.3712 22.706 20.7462 22.3309C21.1213 21.9558 21.332 21.4471 21.332 20.9167V15.24Z" fill="white"/>
</g>
<defs>
<clipPath id="clip0_3160_19802">
<rect width="16" height="16" fill="white" transform="translate(8 8.25)"/>
</clipPath>
</defs>
</svg>
