<svg width="33" height="33" viewBox="0 0 33 33" fill="none" xmlns="http://www.w3.org/2000/svg">
<rect x="0.5" y="0.5" width="32" height="32" rx="12" fill="#CBDAF3"/>
<g clip-path="url(#clip0_3160_21096)">
<path d="M20.668 18.1667C20.668 18.3877 20.5802 18.5997 20.4239 18.7559C20.2676 18.9122 20.0556 19 19.8346 19H13.168C12.947 19 12.735 18.9122 12.5787 18.7559C12.4224 18.5997 12.3346 18.3877 12.3346 18.1667C12.3346 17.9457 12.4224 17.7337 12.5787 17.5774C12.735 17.4211 12.947 17.3334 13.168 17.3334H19.8346C20.0556 17.3334 20.2676 17.4211 20.4239 17.5774C20.5802 17.7337 20.668 17.9457 20.668 18.1667ZM17.3346 20.6667H13.168C12.947 20.6667 12.735 20.7545 12.5787 20.9108C12.4224 21.067 12.3346 21.279 12.3346 21.5C12.3346 21.721 12.4224 21.933 12.5787 22.0893C12.735 22.2456 12.947 22.3334 13.168 22.3334H17.3346C17.5556 22.3334 17.7676 22.2456 17.9239 22.0893C18.0802 21.933 18.168 21.721 18.168 21.5C18.168 21.279 18.0802 21.067 17.9239 20.9108C17.7676 20.7545 17.5556 20.6667 17.3346 20.6667ZM24.8346 15.2375V22.3334C24.8333 23.438 24.3939 24.4971 23.6128 25.2782C22.8317 26.0593 21.7726 26.4987 20.668 26.5H12.3346C11.23 26.4987 10.1709 26.0593 9.38982 25.2782C8.6087 24.4971 8.16929 23.438 8.16797 22.3334V10.6667C8.16929 9.56202 8.6087 8.50298 9.38982 7.72187C10.1709 6.94075 11.23 6.50134 12.3346 6.50002H16.0971C16.8635 6.49805 17.6226 6.64801 18.3307 6.94124C19.0387 7.23446 19.6816 7.66513 20.2221 8.20835L23.1255 11.1134C23.669 11.6536 24.0999 12.2962 24.3933 13.0042C24.6867 13.7121 24.8367 14.4712 24.8346 15.2375ZM19.0438 9.38669C18.7815 9.13265 18.4871 8.91412 18.168 8.73669V12.3334C18.168 12.5544 18.2558 12.7663 18.412 12.9226C18.5683 13.0789 18.7803 13.1667 19.0013 13.1667H22.598C22.4204 12.8477 22.2016 12.5535 21.9471 12.2917L19.0438 9.38669ZM23.168 15.2375C23.168 15.1 23.1413 14.9684 23.1288 14.8334H19.0013C18.3383 14.8334 17.7024 14.57 17.2335 14.1011C16.7647 13.6323 16.5013 12.9964 16.5013 12.3334V8.20585C16.3663 8.19335 16.2338 8.16669 16.0971 8.16669H12.3346C11.6716 8.16669 11.0357 8.43008 10.5669 8.89892C10.098 9.36776 9.83464 10.0036 9.83464 10.6667V22.3334C9.83464 22.9964 10.098 23.6323 10.5669 24.1011C11.0357 24.57 11.6716 24.8334 12.3346 24.8334H20.668C21.331 24.8334 21.9669 24.57 22.4357 24.1011C22.9046 23.6323 23.168 22.9964 23.168 22.3334V15.2375Z" fill="#2A5EB3"/>
</g>
<defs>
<clipPath id="clip0_3160_21096">
<rect width="20" height="20" fill="white" transform="translate(6.5 6.5)"/>
</clipPath>
</defs>
</svg>
