<svg width="18" height="24" viewBox="0 0 18 24" fill="none" xmlns="http://www.w3.org/2000/svg">
<path d="M13 17C13.2652 17 13.5196 17.1054 13.7071 17.2929C13.8946 17.4804 14 17.7348 14 18C14 18.2652 13.8946 18.5196 13.7071 18.7071C13.5196 18.8947 13.2652 19 13 19H12C11.7348 19 11.4804 18.8947 11.2929 18.7071C11.1054 18.5196 11 18.2652 11 18C11 17.7348 11.1054 17.4804 11.2929 17.2929C11.4804 17.1054 11.7348 17 12 17H13ZM11 15C10.7348 15 10.4804 14.8947 10.2929 14.7071C10.1054 14.5196 10 14.2652 10 14V13H8V14C8 14.2652 7.89464 14.5196 7.70711 14.7071C7.51957 14.8947 7.26522 15 7 15C6.73478 15 6.48043 14.8947 6.29289 14.7071C6.10536 14.5196 6 14.2652 6 14V10C6 9.20437 6.31607 8.44131 6.87868 7.8787C7.44129 7.31609 8.20435 7.00002 9 7.00002C9.79565 7.00002 10.5587 7.31609 11.1213 7.8787C11.6839 8.44131 12 9.20437 12 10V14C12 14.2652 11.8946 14.5196 11.7071 14.7071C11.5196 14.8947 11.2652 15 11 15ZM10 11V10C10 9.7348 9.89464 9.48045 9.70711 9.29291C9.51957 9.10537 9.26522 9.00002 9 9.00002C8.73478 9.00002 8.48043 9.10537 8.29289 9.29291C8.10536 9.48045 8 9.7348 8 10V11H10ZM8.289 16.3L6.677 17.93C6.63185 17.9754 6.571 18.0018 6.50699 18.0036C6.44299 18.0055 6.38071 17.9827 6.333 17.94L5.717 17.3C5.53135 17.1099 5.27776 17.0012 5.01202 16.998C4.74628 16.9949 4.49016 17.0974 4.3 17.283C4.10984 17.4687 4.00122 17.7223 3.99803 17.988C3.99484 18.2537 4.09735 18.5099 4.283 18.7L4.909 19.344C5.33177 19.766 5.90468 20.003 6.502 20.003C7.09932 20.003 7.67223 19.766 8.095 19.344L9.711 17.7C9.87645 17.5078 9.96266 17.2599 9.9522 17.0064C9.94173 16.753 9.83536 16.5131 9.65462 16.3351C9.47388 16.1572 9.23228 16.0546 8.97874 16.048C8.72519 16.0415 8.47864 16.1316 8.289 16.3ZM18 6.65702V19C17.9984 20.3256 17.4711 21.5965 16.5338 22.5338C15.5964 23.4711 14.3256 23.9984 13 24H5C3.67441 23.9984 2.40356 23.4711 1.46622 22.5338C0.528882 21.5965 0.00158786 20.3256 0 19V5.00002C0.00158786 3.67442 0.528882 2.40357 1.46622 1.46624C2.40356 0.528898 3.67441 0.0016043 5 1.64432e-05H11.343C12 -0.00167363 12.6508 0.126934 13.2577 0.378399C13.8647 0.629864 14.4157 0.999193 14.879 1.46502L16.535 3.12102C17.0008 3.5843 17.3702 4.13535 17.6216 4.7423C17.8731 5.34925 18.0017 6.00004 18 6.65702ZM13.465 2.87902C13.3229 2.73767 13.1671 2.61072 13 2.50002V5.00002H15.5C15.389 4.83286 15.2617 4.6771 15.12 4.53502L13.465 2.87902ZM16 7.00002H13C12.4696 7.00002 11.9609 6.7893 11.5858 6.41423C11.2107 6.03916 11 5.53045 11 5.00002V2.00002H5C4.20435 2.00002 3.44129 2.31609 2.87868 2.8787C2.31607 3.44131 2 4.20437 2 5.00002V19C2 19.7957 2.31607 20.5587 2.87868 21.1213C3.44129 21.6839 4.20435 22 5 22H13C13.7956 22 14.5587 21.6839 15.1213 21.1213C15.6839 20.5587 16 19.7957 16 19V7.00002Z" fill="white"/>
</svg>
