<svg width="11" height="11" viewBox="0 0 11 11" fill="none" xmlns="http://www.w3.org/2000/svg">
<g clip-path="url(#clip0_3160_17996)">
<path d="M5.27163 0.0195312C4.10915 0.0208102 2.99464 0.483141 2.1726 1.3051C1.35056 2.12706 0.888114 3.24152 0.886719 4.404C0.886719 5.53307 1.76098 7.30004 3.48533 9.6557C3.69061 9.93693 3.95939 10.1657 4.26979 10.3234C4.5802 10.4812 4.92345 10.5634 5.27163 10.5634C5.61981 10.5634 5.96306 10.4812 6.27347 10.3234C6.58387 10.1657 6.85265 9.93693 7.05793 9.6557C8.78228 7.30004 9.65654 5.53307 9.65654 4.404C9.65515 3.24152 9.1927 2.12706 8.37066 1.3051C7.54862 0.483141 6.43411 0.0208102 5.27163 0.0195312ZM5.27163 6.15164C4.92407 6.15164 4.58431 6.04858 4.29532 5.85548C4.00634 5.66239 3.7811 5.38793 3.64809 5.06683C3.51509 4.74572 3.48029 4.39239 3.54809 4.05151C3.6159 3.71062 3.78327 3.3975 4.02903 3.15174C4.27479 2.90597 4.58791 2.73861 4.9288 2.6708C5.26968 2.603 5.62302 2.6378 5.94412 2.7708C6.26523 2.90381 6.53968 3.12905 6.73277 3.41803C6.92587 3.70702 7.02893 4.04678 7.02893 4.39434C7.02893 4.8604 6.84379 5.30738 6.51423 5.63694C6.18467 5.9665 5.7377 6.15164 5.27163 6.15164Z" fill="white"/>
</g>
<defs>
<clipPath id="clip0_3160_17996">
<rect width="10.5438" height="10.5438" fill="white"/>
</clipPath>
</defs>
</svg>
