<svg width="25" height="24" viewBox="0 0 25 24" fill="none" xmlns="http://www.w3.org/2000/svg">
<path d="M11.0999 12.7108C11.0061 12.6178 10.9317 12.5072 10.881 12.3854C10.8302 12.2635 10.8041 12.1328 10.8041 12.0008C10.8041 11.8688 10.8302 11.7381 10.881 11.6162C10.9317 11.4944 11.0061 11.3838 11.0999 11.2908L15.6899 6.71079C15.7836 6.61783 15.858 6.50723 15.9088 6.38537C15.9595 6.26351 15.9857 6.1328 15.9857 6.00079C15.9857 5.86878 15.9595 5.73808 15.9088 5.61622C15.858 5.49436 15.7836 5.38376 15.6899 5.29079C15.5025 5.10454 15.249 5 14.9849 5C14.7207 5 14.4672 5.10454 14.2799 5.29079L9.68986 9.88079C9.12806 10.4433 8.8125 11.2058 8.8125 12.0008C8.8125 12.7958 9.12806 13.5583 9.68986 14.1208L14.2799 18.7108C14.4661 18.8955 14.7175 18.9997 14.9799 19.0008C15.1115 19.0016 15.2419 18.9763 15.3638 18.9266C15.4856 18.8768 15.5964 18.8035 15.6899 18.7108C15.7836 18.6178 15.858 18.5072 15.9088 18.3854C15.9595 18.2635 15.9857 18.1328 15.9857 18.0008C15.9857 17.8688 15.9595 17.7381 15.9088 17.6162C15.858 17.4944 15.7836 17.3838 15.6899 17.2908L11.0999 12.7108Z" fill="#1E1E1E"/>
</svg>
