<svg width="12" height="12" viewBox="0 0 12 12" fill="none" xmlns="http://www.w3.org/2000/svg">
<g clip-path="url(#clip0_4015_18196)">
<path d="M11.0666 3.16016L7.36834 6.8584C6.95597 7.26972 6.39731 7.50071 5.81488 7.50071C5.23245 7.50071 4.67379 7.26972 4.26142 6.8584L0.563178 3.16016C0.557027 3.22957 0.542969 3.29239 0.542969 3.36137V8.63328C0.543666 9.21565 0.77532 9.77396 1.18712 10.1858C1.59891 10.5976 2.15723 10.8292 2.7396 10.8299H8.89016C9.47253 10.8292 10.0308 10.5976 10.4426 10.1858C10.8544 9.77396 11.0861 9.21565 11.0868 8.63328V3.36137C11.0868 3.29239 11.0727 3.22957 11.0666 3.16016Z" fill="#818181"/>
<path d="M6.74449 6.23652L10.7573 2.22328C10.5629 1.90095 10.2887 1.63416 9.96122 1.44863C9.63372 1.2631 9.26393 1.16509 8.88752 1.16406H2.73696C2.36055 1.16509 1.99076 1.2631 1.66326 1.44863C1.33575 1.63416 1.06158 1.90095 0.867188 2.22328L4.87999 6.23652C5.12758 6.48312 5.46279 6.62157 5.81224 6.62157C6.16169 6.62157 6.4969 6.48312 6.74449 6.23652V6.23652Z" fill="#818181"/>
</g>
<defs>
<clipPath id="clip0_4015_18196">
<rect width="10.5438" height="10.5438" fill="white" transform="translate(0.542969 0.726562)"/>
</clipPath>
</defs>
</svg>
