<svg width="32" height="32" viewBox="0 0 32 32" fill="none" xmlns="http://www.w3.org/2000/svg">
<rect width="32" height="32" rx="12" fill="#AAD4B9"/>
<g clip-path="url(#clip0_3160_17878)">
<path d="M16 16C16.9889 16 17.9556 15.7068 18.7779 15.1573C19.6001 14.6079 20.241 13.827 20.6194 12.9134C20.9978 11.9998 21.0969 10.9945 20.9039 10.0246C20.711 9.05465 20.2348 8.16373 19.5355 7.46447C18.8363 6.76521 17.9454 6.289 16.9755 6.09608C16.0055 5.90315 15.0002 6.00217 14.0866 6.3806C13.173 6.75904 12.3921 7.39991 11.8427 8.22215C11.2932 9.0444 11 10.0111 11 11C11.0013 12.3257 11.5285 13.5967 12.4659 14.5341C13.4033 15.4715 14.6743 15.9987 16 16ZM16 7.66667C16.6593 7.66667 17.3037 7.86217 17.8519 8.22844C18.4001 8.59471 18.8273 9.1153 19.0796 9.72439C19.3319 10.3335 19.3979 11.0037 19.2693 11.6503C19.1407 12.2969 18.8232 12.8909 18.357 13.357C17.8908 13.8232 17.2969 14.1407 16.6503 14.2693C16.0037 14.3979 15.3335 14.3319 14.7244 14.0796C14.1153 13.8273 13.5947 13.4001 13.2284 12.8519C12.8622 12.3037 12.6667 11.6593 12.6667 11C12.6667 10.1159 13.0179 9.2681 13.643 8.64298C14.2681 8.01786 15.1159 7.66667 16 7.66667Z" fill="#408056"/>
<path d="M16 17.668C14.0116 17.6702 12.1052 18.4611 10.6991 19.8671C9.29309 21.2731 8.50221 23.1795 8.5 25.168C8.5 25.389 8.5878 25.6009 8.74408 25.7572C8.90036 25.9135 9.11232 26.0013 9.33333 26.0013C9.55435 26.0013 9.76631 25.9135 9.92259 25.7572C10.0789 25.6009 10.1667 25.389 10.1667 25.168C10.1667 23.6209 10.7812 22.1371 11.8752 21.0432C12.9692 19.9492 14.4529 19.3346 16 19.3346C17.5471 19.3346 19.0308 19.9492 20.1248 21.0432C21.2188 22.1371 21.8333 23.6209 21.8333 25.168C21.8333 25.389 21.9211 25.6009 22.0774 25.7572C22.2337 25.9135 22.4457 26.0013 22.6667 26.0013C22.8877 26.0013 23.0996 25.9135 23.2559 25.7572C23.4122 25.6009 23.5 25.389 23.5 25.168C23.4978 23.1795 22.7069 21.2731 21.3009 19.8671C19.8948 18.4611 17.9884 17.6702 16 17.668Z" fill="#408056"/>
</g>
<defs>
<clipPath id="clip0_3160_17878">
<rect width="20" height="20" fill="white" transform="translate(6 6)"/>
</clipPath>
</defs>
</svg>
