<svg width="24" height="24" viewBox="0 0 24 24" fill="none" xmlns="http://www.w3.org/2000/svg">
<g clip-path="url(#clip0_3160_18098)">
<path d="M8.66667 4H6.66667C5.95942 4 5.28115 4.28095 4.78105 4.78105C4.28095 5.28115 4 5.95942 4 6.66667L4 8.66667C4 9.37391 4.28095 10.0522 4.78105 10.5523C5.28115 11.0524 5.95942 11.3333 6.66667 11.3333H8.66667C9.37391 11.3333 10.0522 11.0524 10.5523 10.5523C11.0524 10.0522 11.3333 9.37391 11.3333 8.66667V6.66667C11.3333 5.95942 11.0524 5.28115 10.5523 4.78105C10.0522 4.28095 9.37391 4 8.66667 4V4ZM10 8.66667C10 9.02029 9.85952 9.35943 9.60948 9.60948C9.35943 9.85952 9.02029 10 8.66667 10H6.66667C6.31304 10 5.97391 9.85952 5.72386 9.60948C5.47381 9.35943 5.33333 9.02029 5.33333 8.66667V6.66667C5.33333 6.31304 5.47381 5.97391 5.72386 5.72386C5.97391 5.47381 6.31304 5.33333 6.66667 5.33333H8.66667C9.02029 5.33333 9.35943 5.47381 9.60948 5.72386C9.85952 5.97391 10 6.31304 10 6.66667V8.66667Z" fill="#A6A6A6"/>
<path d="M17.3346 4H15.3346C14.6274 4 13.9491 4.28095 13.449 4.78105C12.9489 5.28115 12.668 5.95942 12.668 6.66667V8.66667C12.668 9.37391 12.9489 10.0522 13.449 10.5523C13.9491 11.0524 14.6274 11.3333 15.3346 11.3333H17.3346C18.0419 11.3333 18.7201 11.0524 19.2202 10.5523C19.7203 10.0522 20.0013 9.37391 20.0013 8.66667V6.66667C20.0013 5.95942 19.7203 5.28115 19.2202 4.78105C18.7201 4.28095 18.0419 4 17.3346 4V4ZM18.668 8.66667C18.668 9.02029 18.5275 9.35943 18.2774 9.60948C18.0274 9.85953 17.6883 10 17.3346 10H15.3346C14.981 10 14.6419 9.85953 14.3918 9.60948C14.1418 9.35943 14.0013 9.02029 14.0013 8.66667V6.66667C14.0013 6.31305 14.1418 5.97391 14.3918 5.72386C14.6419 5.47381 14.981 5.33333 15.3346 5.33333H17.3346C17.6883 5.33333 18.0274 5.47381 18.2774 5.72386C18.5275 5.97391 18.668 6.31305 18.668 6.66667V8.66667Z" fill="#A6A6A6"/>
<path d="M8.66667 12.668H6.66667C5.95942 12.668 5.28115 12.9489 4.78105 13.449C4.28095 13.9491 4 14.6274 4 15.3346L4 17.3346C4 18.0419 4.28095 18.7202 4.78105 19.2203C5.28115 19.7204 5.95942 20.0013 6.66667 20.0013H8.66667C9.37391 20.0013 10.0522 19.7204 10.5523 19.2203C11.0524 18.7202 11.3333 18.0419 11.3333 17.3346V15.3346C11.3333 14.6274 11.0524 13.9491 10.5523 13.449C10.0522 12.9489 9.37391 12.668 8.66667 12.668ZM10 17.3346C10 17.6883 9.85952 18.0274 9.60948 18.2775C9.35943 18.5275 9.02029 18.668 8.66667 18.668H6.66667C6.31304 18.668 5.97391 18.5275 5.72386 18.2775C5.47381 18.0274 5.33333 17.6883 5.33333 17.3346V15.3346C5.33333 14.981 5.47381 14.6419 5.72386 14.3918C5.97391 14.1418 6.31304 14.0013 6.66667 14.0013H8.66667C9.02029 14.0013 9.35943 14.1418 9.60948 14.3918C9.85952 14.6419 10 14.981 10 15.3346V17.3346Z" fill="#A6A6A6"/>
<path d="M17.3346 12.668H15.3346C14.6274 12.668 13.9491 12.9489 13.449 13.449C12.9489 13.9491 12.668 14.6274 12.668 15.3346V17.3346C12.668 18.0419 12.9489 18.7202 13.449 19.2203C13.9491 19.7204 14.6274 20.0013 15.3346 20.0013H17.3346C18.0419 20.0013 18.7201 19.7204 19.2202 19.2203C19.7203 18.7202 20.0013 18.0419 20.0013 17.3346V15.3346C20.0013 14.6274 19.7203 13.9491 19.2202 13.449C18.7201 12.9489 18.0419 12.668 17.3346 12.668ZM18.668 17.3346C18.668 17.6883 18.5275 18.0274 18.2774 18.2775C18.0274 18.5275 17.6883 18.668 17.3346 18.668H15.3346C14.981 18.668 14.6419 18.5275 14.3918 18.2775C14.1418 18.0274 14.0013 17.6883 14.0013 17.3346V15.3346C14.0013 14.981 14.1418 14.6419 14.3918 14.3918C14.6419 14.1418 14.981 14.0013 15.3346 14.0013H17.3346C17.6883 14.0013 18.0274 14.1418 18.2774 14.3918C18.5275 14.6419 18.668 14.981 18.668 15.3346V17.3346Z" fill="#A6A6A6"/>
</g>
<defs>
<clipPath id="clip0_3160_18098">
<rect width="16" height="16" fill="white" transform="translate(4 4)"/>
</clipPath>
</defs>
</svg>
