<svg width="33" height="33" viewBox="0 0 33 33" fill="none" xmlns="http://www.w3.org/2000/svg">
<rect x="0.5" y="0.25" width="32" height="32" rx="4" fill="#306CCC"/>
<g clip-path="url(#clip0_3160_19770)">
<path d="M21.1667 8.91797H11.8333C10.9496 8.91903 10.1024 9.27056 9.47748 9.89545C8.85259 10.5203 8.50106 11.3676 8.5 12.2513V17.5846C8.50106 18.4684 8.85259 19.3156 9.47748 19.9405C10.1024 20.5654 10.9496 20.9169 11.8333 20.918H15.8333V22.2513H13.1667C12.9899 22.2513 12.8203 22.3215 12.6953 22.4466C12.5702 22.5716 12.5 22.7412 12.5 22.918C12.5 23.0948 12.5702 23.2643 12.6953 23.3894C12.8203 23.5144 12.9899 23.5846 13.1667 23.5846H19.8333C20.0101 23.5846 20.1797 23.5144 20.3047 23.3894C20.4298 23.2643 20.5 23.0948 20.5 22.918C20.5 22.7412 20.4298 22.5716 20.3047 22.4466C20.1797 22.3215 20.0101 22.2513 19.8333 22.2513H17.1667V20.918H21.1667C22.0504 20.9169 22.8976 20.5654 23.5225 19.9405C24.1474 19.3156 24.4989 18.4684 24.5 17.5846V12.2513C24.4989 11.3676 24.1474 10.5203 23.5225 9.89545C22.8976 9.27056 22.0504 8.91903 21.1667 8.91797ZM11.8333 10.2513H21.1667C21.6971 10.2513 22.2058 10.462 22.5809 10.8371C22.956 11.2122 23.1667 11.7209 23.1667 12.2513V16.918H9.83333V12.2513C9.83333 11.7209 10.044 11.2122 10.4191 10.8371C10.7942 10.462 11.3029 10.2513 11.8333 10.2513ZM21.1667 19.5846H11.8333C11.4212 19.5829 11.0196 19.4539 10.6835 19.2152C10.3475 18.9766 10.0934 18.6399 9.956 18.2513H23.044C22.9066 18.6399 22.6525 18.9766 22.3165 19.2152C21.9804 19.4539 21.5788 19.5829 21.1667 19.5846Z" fill="white"/>
</g>
<defs>
<clipPath id="clip0_3160_19770">
<rect width="16" height="16" fill="white" transform="translate(8.5 8.25)"/>
</clipPath>
</defs>
</svg>
