<svg width="59" height="58" viewBox="0 0 59 58" fill="none" xmlns="http://www.w3.org/2000/svg">
<rect x="0.53125" width="58" height="58" rx="8" fill="white"/>
<g clip-path="url(#clip0_3160_18026)">
<path d="M40.0848 30.6636L38.1848 23.8276C37.6279 21.825 36.4175 20.0659 34.7461 18.8301C33.0747 17.5943 31.0382 16.9526 28.9602 17.0071C26.8823 17.0616 24.8822 17.8091 23.2778 19.1308C21.6735 20.4525 20.557 22.2725 20.1058 24.3016L18.6348 30.9166C18.4723 31.6476 18.476 32.4057 18.6458 33.135C18.8155 33.8643 19.1468 34.5461 19.6153 35.1302C20.0839 35.7143 20.6776 36.1857 21.3527 36.5096C22.0278 36.8335 22.767 37.0017 23.5158 37.0016H24.6298C24.8593 38.1319 25.4725 39.1481 26.3655 39.878C27.2585 40.6079 28.3764 41.0067 29.5298 41.0067C30.6831 41.0067 31.801 40.6079 32.694 39.878C33.587 39.1481 34.2003 38.1319 34.4298 37.0016H35.2678C36.0386 37.0017 36.799 36.8235 37.4895 36.4811C38.1801 36.1386 38.7821 35.6411 39.2486 35.0275C39.7151 34.4139 40.0333 33.7007 40.1786 32.9437C40.3238 32.1867 40.292 31.4063 40.0858 30.6636H40.0848ZM29.5298 39.0016C28.9115 38.9991 28.3091 38.8056 27.8051 38.4476C27.301 38.0896 26.9199 37.5846 26.7138 37.0016H32.3458C32.1397 37.5846 31.7585 38.0896 31.2545 38.4476C30.7504 38.8056 30.148 38.9991 29.5298 39.0016ZM37.6558 33.8166C37.3771 34.1863 37.0161 34.4859 36.6014 34.6916C36.1867 34.8973 35.7297 35.0035 35.2668 35.0016H23.5158C23.0666 35.0016 22.6231 34.9006 22.2181 34.7062C21.8131 34.5118 21.457 34.229 21.1759 33.8785C20.8949 33.5281 20.6961 33.119 20.5943 32.6815C20.4925 32.244 20.4903 31.7892 20.5878 31.3506L22.0578 24.7346C22.4121 23.1409 23.2891 21.7112 24.5492 20.6731C25.8094 19.6349 27.3804 19.0478 29.0125 19.0051C30.6447 18.9623 32.2443 19.4664 33.5571 20.4371C34.8699 21.4079 35.8205 22.7896 36.2578 24.3626L38.1578 31.1986C38.2833 31.644 38.3033 32.1125 38.2162 32.567C38.129 33.0214 37.9371 33.4493 37.6558 33.8166Z" fill="#4F4F4F"/>
</g>
<defs>
<clipPath id="clip0_3160_18026">
<rect width="24" height="24" fill="white" transform="translate(17.5312 17)"/>
</clipPath>
</defs>
</svg>
