<svg width="32" height="32" viewBox="0 0 32 32" fill="none" xmlns="http://www.w3.org/2000/svg">
<rect width="32" height="32" rx="12" fill="#CBDAF3"/>
<g clip-path="url(#clip0_3160_17887)">
<path d="M22.6263 10.6134L19.7213 7.70835C19.181 7.16509 18.5382 6.73437 17.8303 6.44114C17.1224 6.14791 16.3634 5.99797 15.5971 6.00002H11.8346C10.73 6.00134 9.67093 6.44076 8.88982 7.22187C8.1087 8.00299 7.66929 9.06203 7.66797 10.1667V21.8334C7.66929 22.938 8.1087 23.9971 8.88982 24.7782C9.67093 25.5593 10.73 25.9987 11.8346 26H20.168C21.2726 25.9987 22.3317 25.5593 23.1128 24.7782C23.8939 23.9971 24.3333 22.938 24.3346 21.8334V14.7375C24.3367 13.9713 24.1868 13.2123 23.8935 12.5043C23.6003 11.7964 23.1696 11.1537 22.6263 10.6134ZM21.448 11.7917C21.7022 12.0537 21.921 12.3479 22.0988 12.6667H18.5013C18.2803 12.6667 18.0683 12.5789 17.912 12.4226C17.7558 12.2663 17.668 12.0544 17.668 11.8334V8.23585C17.9868 8.41367 18.281 8.63248 18.543 8.88669L21.448 11.7917ZM22.668 21.8334C22.668 22.4964 22.4046 23.1323 21.9357 23.6011C21.4669 24.07 20.831 24.3334 20.168 24.3334H11.8346C11.1716 24.3334 10.5357 24.07 10.0669 23.6011C9.59803 23.1323 9.33464 22.4964 9.33464 21.8334V10.1667C9.33464 9.50365 9.59803 8.86776 10.0669 8.39892C10.5357 7.93008 11.1716 7.66669 11.8346 7.66669H15.5971C15.7346 7.66669 15.8663 7.69335 16.0013 7.70585V11.8334C16.0013 12.4964 16.2647 13.1323 16.7335 13.6011C17.2024 14.07 17.8383 14.3334 18.5013 14.3334H22.6288C22.6413 14.4684 22.668 14.6 22.668 14.7375V21.8334ZM19.938 17.0925C20.0901 17.2526 20.1725 17.4665 20.1671 17.6873C20.1616 17.9081 20.0687 18.1177 19.9088 18.27L16.918 21.115C16.4478 21.5778 15.8139 21.8359 15.1542 21.8333C14.4946 21.8306 13.8627 21.5674 13.3963 21.1009L12.113 19.9559C11.9479 19.8087 11.848 19.6019 11.8354 19.3811C11.8291 19.2717 11.8444 19.1622 11.8805 19.0588C11.9165 18.9554 11.9726 18.8601 12.0455 18.7784C12.1184 18.6966 12.2066 18.63 12.3052 18.5824C12.4039 18.5347 12.5109 18.507 12.6202 18.5007C12.8411 18.4881 13.0579 18.5637 13.223 18.7109L14.5438 19.8892C14.6194 19.9741 14.7116 20.0426 14.8147 20.0906C14.9178 20.1385 15.0296 20.1649 15.1433 20.168C15.2569 20.1711 15.37 20.151 15.4756 20.1088C15.5812 20.0665 15.677 20.0032 15.7571 19.9225L18.7571 17.0634C18.8365 16.9875 18.93 16.9281 19.0324 16.8885C19.1347 16.8489 19.2439 16.8299 19.3536 16.8326C19.4633 16.8353 19.5714 16.8597 19.6717 16.9043C19.772 16.9489 19.8625 17.0128 19.938 17.0925Z" fill="#1E4380"/>
</g>
<defs>
<clipPath id="clip0_3160_17887">
<rect width="20" height="20" fill="white" transform="translate(6 6)"/>
</clipPath>
</defs>
</svg>
