<svg width="16" height="16" viewBox="0 0 16 16" fill="none" xmlns="http://www.w3.org/2000/svg">
<g clip-path="url(#clip0_4015_14218)">
<path d="M0.781333 12.7469C0.281202 13.2469 0.000151033 13.925 0 14.6322L0 16.0009H1.36867C2.07585 16.0007 2.75402 15.7197 3.254 15.2195L12.1493 6.32422L9.67667 3.85156L0.781333 12.7469Z" fill="#4F4F4F"/>
<path d="M15.4318 0.571216C15.2694 0.408706 15.0766 0.279786 14.8644 0.191827C14.6522 0.103867 14.4248 0.0585938 14.1951 0.0585938C13.9654 0.0585937 13.7379 0.103867 13.5257 0.191827C13.3135 0.279786 13.1208 0.408706 12.9584 0.571216L10.6211 2.90922L13.0938 5.38188L15.4318 3.04455C15.5943 2.88221 15.7232 2.68943 15.8111 2.47723C15.8991 2.26504 15.9444 2.03759 15.9444 1.80788C15.9444 1.57818 15.8991 1.35073 15.8111 1.13853C15.7232 0.926335 15.5943 0.733556 15.4318 0.571216Z" fill="#4F4F4F"/>
</g>
<defs>
<clipPath id="clip0_4015_14218">
<rect width="16" height="16" fill="white"/>
</clipPath>
</defs>
</svg>
