<svg width="32" height="32" viewBox="0 0 32 32" fill="none" xmlns="http://www.w3.org/2000/svg">
<rect width="32" height="32" rx="4" fill="#306CCC"/>
<g clip-path="url(#clip0_4540_20034)">
<path d="M16 16C16.7911 16 17.5645 15.7654 18.2223 15.3259C18.8801 14.8864 19.3928 14.2616 19.6955 13.5307C19.9983 12.7998 20.0775 11.9956 19.9231 11.2196C19.7688 10.4437 19.3878 9.73098 18.8284 9.17157C18.269 8.61216 17.5563 8.2312 16.7804 8.07686C16.0044 7.92252 15.2002 8.00173 14.4693 8.30448C13.7384 8.60723 13.1136 9.11992 12.6741 9.77772C12.2346 10.4355 12 11.2089 12 12C12.0011 13.0605 12.4228 14.0773 13.1727 14.8273C13.9227 15.5772 14.9395 15.9989 16 16ZM16 9.33334C16.5274 9.33334 17.043 9.48973 17.4815 9.78275C17.9201 10.0758 18.2618 10.4922 18.4637 10.9795C18.6655 11.4668 18.7183 12.003 18.6154 12.5202C18.5125 13.0375 18.2586 13.5127 17.8856 13.8856C17.5127 14.2586 17.0375 14.5125 16.5202 14.6154C16.003 14.7183 15.4668 14.6655 14.9795 14.4637C14.4922 14.2618 14.0758 13.9201 13.7827 13.4815C13.4897 13.043 13.3333 12.5274 13.3333 12C13.3333 11.2928 13.6143 10.6145 14.1144 10.1144C14.6145 9.61429 15.2928 9.33334 16 9.33334Z" fill="white"/>
<path d="M16 17.332C14.4092 17.3338 12.8841 17.9665 11.7593 19.0913C10.6345 20.2162 10.0018 21.7413 10 23.332C10 23.5088 10.0702 23.6784 10.1953 23.8034C10.3203 23.9285 10.4899 23.9987 10.6667 23.9987C10.8435 23.9987 11.013 23.9285 11.1381 23.8034C11.2631 23.6784 11.3333 23.5088 11.3333 23.332C11.3333 22.0944 11.825 20.9074 12.7002 20.0322C13.5753 19.157 14.7623 18.6654 16 18.6654C17.2377 18.6654 18.4247 19.157 19.2998 20.0322C20.175 20.9074 20.6667 22.0944 20.6667 23.332C20.6667 23.5088 20.7369 23.6784 20.8619 23.8034C20.987 23.9285 21.1565 23.9987 21.3333 23.9987C21.5101 23.9987 21.6797 23.9285 21.8047 23.8034C21.9298 23.6784 22 23.5088 22 23.332C21.9982 21.7413 21.3655 20.2162 20.2407 19.0913C19.1159 17.9665 17.5908 17.3338 16 17.332Z" fill="white"/>
</g>
<defs>
<clipPath id="clip0_4540_20034">
<rect width="16" height="16" fill="white" transform="translate(8 8)"/>
</clipPath>
</defs>
</svg>
