<svg width="11" height="12" viewBox="0 0 11 12" fill="none" xmlns="http://www.w3.org/2000/svg">
<g clip-path="url(#clip0_3160_18123)">
<path d="M10.1048 5.55992C9.98829 5.55992 9.87654 5.51363 9.79415 5.43124C9.71176 5.34886 9.66548 5.23711 9.66548 5.12059C9.66455 4.18875 9.29396 3.29533 8.63505 2.63642C7.97613 1.9775 7.08272 1.60692 6.15087 1.60599C6.03436 1.60599 5.92261 1.5597 5.84022 1.47731C5.75783 1.39492 5.71155 1.28318 5.71155 1.16666C5.71155 1.05014 5.75783 0.938401 5.84022 0.856011C5.92261 0.773622 6.03436 0.727336 6.15087 0.727336C7.31564 0.728615 8.43234 1.19189 9.25596 2.0155C10.0796 2.83912 10.5429 3.95582 10.5441 5.12059C10.5441 5.23711 10.4978 5.34886 10.4155 5.43124C10.3331 5.51363 10.2213 5.55992 10.1048 5.55992ZM8.78683 5.12059C8.78683 4.4215 8.50911 3.75103 8.01477 3.25669C7.52044 2.76236 6.84997 2.48464 6.15087 2.48464C6.03436 2.48464 5.92261 2.53093 5.84022 2.61331C5.75783 2.6957 5.71155 2.80745 5.71155 2.92396C5.71155 3.04048 5.75783 3.15223 5.84022 3.23462C5.92261 3.317 6.03436 3.36329 6.15087 3.36329C6.61694 3.36329 7.06391 3.54843 7.39347 3.87799C7.72303 4.20755 7.90817 4.65453 7.90817 5.12059C7.90817 5.23711 7.95446 5.34886 8.03685 5.43124C8.11924 5.51363 8.23098 5.55992 8.3475 5.55992C8.46402 5.55992 8.57576 5.51363 8.65815 5.43124C8.74054 5.34886 8.78683 5.23711 8.78683 5.12059ZM9.74588 10.4646L10.1457 10.0037C10.4001 9.74842 10.543 9.40268 10.543 9.04224C10.543 8.6818 10.4001 8.33605 10.1457 8.08077C10.132 8.06715 9.07502 7.25396 9.07502 7.25396C8.82134 7.01248 8.48436 6.87801 8.13412 6.8785C7.78387 6.87899 7.44728 7.0144 7.19427 7.2566L6.35692 7.96215C5.6734 7.67927 5.05251 7.26414 4.52988 6.74062C4.00726 6.21709 3.59321 5.59548 3.31151 4.91148L4.01443 4.07676C4.25681 3.82378 4.39238 3.48713 4.39295 3.13678C4.39353 2.78642 4.25906 2.44933 4.01751 2.19556C4.01751 2.19556 3.20343 1.13986 3.18982 1.12624C2.93916 0.87396 2.59931 0.730421 2.2437 0.726639C1.88808 0.722858 1.54526 0.859138 1.28929 1.10603L0.784067 1.54536C-2.20071 5.00813 4.22662 11.3858 7.80362 11.2712C8.16482 11.2732 8.52279 11.203 8.85638 11.0644C9.18996 10.9259 9.49242 10.7219 9.74588 10.4646Z" fill="#818181"/>
</g>
<defs>
<clipPath id="clip0_3160_18123">
<rect width="10.5438" height="10.5438" fill="white" transform="translate(0 0.726562)"/>
</clipPath>
</defs>
</svg>
