<svg width="11" height="10" viewBox="0 0 11 10" fill="none" xmlns="http://www.w3.org/2000/svg">
<g clip-path="url(#clip0_3160_18138)">
<path d="M10.4992 0.834389V2.50106C10.4992 2.61156 10.4553 2.71754 10.3771 2.79568C10.299 2.87382 10.193 2.91772 10.0825 2.91772C9.97201 2.91772 9.86603 2.87382 9.78789 2.79568C9.70975 2.71754 9.66585 2.61156 9.66585 2.50106V1.43397L7.45752 3.63022C7.42006 3.67414 7.37389 3.7098 7.32193 3.73494C7.26997 3.76007 7.21335 3.77414 7.15567 3.77624C7.09798 3.77834 7.04049 3.76844 6.98684 3.74715C6.93318 3.72587 6.88454 3.69367 6.84398 3.65259C6.80343 3.61151 6.77185 3.56246 6.75125 3.50854C6.73066 3.45462 6.72148 3.397 6.72432 3.33935C6.72716 3.2817 6.74195 3.22527 6.76775 3.17363C6.79355 3.12199 6.82979 3.07628 6.87419 3.03939L9.08669 0.834389H7.99919C7.88868 0.834389 7.7827 0.79049 7.70456 0.71235C7.62642 0.63421 7.58252 0.528229 7.58252 0.417722C7.58252 0.307216 7.62642 0.201235 7.70456 0.123095C7.7827 0.0449545 7.88868 0.00105581 7.99919 0.00105581H9.66585C9.88687 0.00105581 10.0988 0.0888532 10.2551 0.245133C10.4114 0.401414 10.4992 0.613375 10.4992 0.834389ZM9.10544 6.19106C8.86485 5.96215 8.54535 5.8347 8.21327 5.83516C7.88119 5.83563 7.56204 5.96398 7.3221 6.19356L6.52794 6.86272C5.87964 6.59449 5.29074 6.20079 4.79506 5.70426C4.29939 5.20773 3.90672 4.61815 3.6396 3.96939L4.30627 3.17772C4.53585 2.93778 4.6642 2.61864 4.66466 2.28656C4.66513 1.95447 4.53768 1.63497 4.30877 1.39439C4.30877 1.39439 3.5371 0.392306 3.5246 0.378972C3.28668 0.139748 2.96424 0.00365849 2.62686 7.26903e-05C2.28948 -0.00351311 1.96422 0.125692 1.72127 0.359806L1.24252 0.776472C-1.97415 4.19689 6.32585 12.5006 9.74252 9.23481L10.1225 8.79772C10.364 8.55559 10.4996 8.22759 10.4996 7.88564C10.4996 7.54369 10.364 7.21569 10.1225 6.97356C10.1088 6.96272 9.10544 6.19106 9.10544 6.19106Z" fill="#CB3A31"/>
</g>
<defs>
<clipPath id="clip0_3160_18138">
<rect width="10" height="10" fill="white" transform="translate(0.5)"/>
</clipPath>
</defs>
</svg>
