<svg width="42" height="42" viewBox="0 0 42 42" fill="none" xmlns="http://www.w3.org/2000/svg">
<path d="M30.6326 37.3284C27.1161 37.3284 24.2653 34.4777 24.2653 30.9611C24.2653 27.4445 27.1161 24.5938 30.6326 24.5938C34.1492 24.5938 37 27.4445 37 30.9611C37 34.4777 34.1492 37.3284 30.6326 37.3284Z" stroke="#408056" stroke-width="1.14286" stroke-miterlimit="10" stroke-linecap="round"/>
<path d="M28.5117 32.7573L30.9607 31.7777V27.8594" stroke="#408056" stroke-width="1.20816" stroke-miterlimit="10" stroke-linecap="round" stroke-linejoin="round"/>
<path d="M13.6531 22.9585C18.4204 22.9585 22.3061 19.0728 22.3061 14.3054C22.3061 9.53806 18.4204 5.65234 13.6531 5.65234C8.88571 5.65234 5 9.53806 5 14.3054C5 19.0728 8.88571 22.9585 13.6531 22.9585Z" fill="#6AB585"/>
<path fill-rule="evenodd" clip-rule="evenodd" d="M21.3425 6.14286C20.3143 6.14286 19.4649 6.96952 19.4649 8.02041V9.62041C19.4649 9.99053 19.7642 10.2898 20.1343 10.2898H24.8037C25.1982 10.2898 25.4378 9.9817 25.4106 9.70992L25.4078 9.68156V9.65306V8.02041C25.4078 6.99225 24.5811 6.14286 23.5302 6.14286H21.3425ZM13.6691 8.88575H18.3221V9.62041C18.3221 10.6217 19.133 11.4327 20.1343 11.4327H24.8037C25.7708 11.4327 26.6337 10.6467 26.5507 9.62746V8.88575H31.1712C32.2597 8.88575 33.1467 9.77277 33.1467 10.8613V22.5347C33.1467 22.8503 33.4025 23.1062 33.7181 23.1062C34.0337 23.1062 34.2896 22.8503 34.2896 22.5347V10.8613C34.2896 9.14159 32.8909 7.7429 31.1712 7.7429H26.538C26.3989 6.22004 25.1263 5 23.5302 5H21.3425C19.7844 5 18.4747 6.18541 18.3345 7.7429H13.6691C11.9495 7.7429 10.5508 9.14159 10.5508 10.8613V34.2082C10.5508 35.9279 11.9495 37.3266 13.6691 37.3266H23.1222C23.4378 37.3266 23.6936 37.0707 23.6936 36.7551C23.6936 36.4396 23.4378 36.1837 23.1222 36.1837H13.6691C12.5807 36.1837 11.6936 35.2967 11.6936 34.2082V10.8613C11.6936 9.77277 12.5807 8.88575 13.6691 8.88575ZM16.1833 15.7756C15.8677 15.7756 15.6119 16.0314 15.6119 16.347C15.6119 16.6626 15.8677 16.9184 16.1833 16.9184H28.5915C28.907 16.9184 29.1629 16.6626 29.1629 16.347C29.1629 16.0314 28.907 15.7756 28.5915 15.7756H16.1833ZM15.5309 21.0001C15.5309 20.6845 15.7867 20.4286 16.1023 20.4286H25.2452C25.5608 20.4286 25.8166 20.6845 25.8166 21.0001C25.8166 21.3156 25.5608 21.5715 25.2452 21.5715H16.1023C15.7867 21.5715 15.5309 21.3156 15.5309 21.0001ZM16.1023 25.3267C15.7867 25.3267 15.5309 25.5825 15.5309 25.8981C15.5309 26.2137 15.7867 26.4696 16.1023 26.4696H22.3064C22.622 26.4696 22.8778 26.2137 22.8778 25.8981C22.8778 25.5825 22.622 25.3267 22.3064 25.3267H16.1023Z" fill="#408056"/>
</svg>
