<svg width="42" height="42" viewBox="0 0 42 42" fill="none" xmlns="http://www.w3.org/2000/svg">
<path d="M29.4057 36.9911C34.1401 36.9911 37.999 33.1323 37.999 28.3979C37.999 23.6635 34.1401 19.8047 29.4057 19.8047C24.6713 19.8047 20.8125 23.6635 20.8125 28.3979C20.8125 33.1323 24.6713 36.9911 29.4057 36.9911Z" fill="#6AB585"/>
<path fill-rule="evenodd" clip-rule="evenodd" d="M19.5804 6.13495C18.5594 6.13495 17.7159 6.95591 17.7159 7.99952V9.58846C17.7159 9.95602 18.0131 10.2532 18.3806 10.2532H23.0177C23.4094 10.2532 23.6474 9.94725 23.6204 9.67735L23.6176 9.64919V9.62089V7.99952C23.6176 6.97847 22.7967 6.13495 21.7531 6.13495H19.5804ZM13.0788 8.85881H16.5809V9.58846C16.5809 10.5828 17.3862 11.3882 18.3806 11.3882H23.0177C23.9782 11.3882 24.835 10.6076 24.7526 9.59546V8.85881H29.3411C30.4221 8.85881 31.303 9.7397 31.303 10.8207V34.0062C31.303 35.0871 30.4221 35.968 29.3411 35.968H11.9601C10.8791 35.968 9.99824 35.0871 9.99824 34.0062V25.5913C9.99824 25.2779 9.74417 25.0238 9.43076 25.0238C9.11735 25.0238 8.86328 25.2779 8.86328 25.5913V34.0062C8.86328 35.714 10.2523 37.103 11.9601 37.103H29.3411C31.0489 37.103 32.4379 35.714 32.4379 34.0062V10.8207C32.4379 9.11288 31.0489 7.72386 29.3411 7.72386H24.74C24.6019 6.21157 23.3381 5 21.7531 5H19.5804C18.0332 5 16.7326 6.17718 16.5933 7.72386H13.0788C12.7654 7.72386 12.5114 7.97793 12.5114 8.29134C12.5114 8.60475 12.7654 8.85881 13.0788 8.85881ZM21.8342 15.7821C21.5208 15.7821 21.2667 16.0361 21.2667 16.3495C21.2667 16.663 21.5208 16.917 21.8342 16.917H26.6983C27.0117 16.917 27.2658 16.663 27.2658 16.3495C27.2658 16.0361 27.0117 15.7821 26.6983 15.7821L21.8342 15.7821ZM19.3211 20.8894C19.3211 20.576 19.5751 20.3219 19.8886 20.3219H26.6983C27.0117 20.3219 27.2658 20.576 27.2658 20.8894C27.2658 21.2028 27.0117 21.4568 26.6983 21.4568H19.8886C19.5751 21.4568 19.3211 21.2028 19.3211 20.8894ZM14.457 25.1049C14.1436 25.1049 13.8895 25.359 13.8895 25.6724C13.8895 25.9858 14.1436 26.2399 14.457 26.2399H26.7794C27.0928 26.2399 27.3468 25.9858 27.3468 25.6724C27.3468 25.359 27.0928 25.1049 26.7794 25.1049H14.457Z" fill="#408056"/>
<path d="M10.3251 22.8341C6.83283 22.8341 4.00179 20.0031 4.00179 16.5108C4.00179 13.0185 6.83283 10.1875 10.3251 10.1875C13.8174 10.1875 16.6484 13.0185 16.6484 16.5108C16.6484 20.0031 13.8174 22.8341 10.3251 22.8341Z" stroke="#408056" stroke-width="1.13495" stroke-miterlimit="10" stroke-linecap="round"/>
<path d="M8.21484 18.2938L10.6469 17.321V13.4297" stroke="#408056" stroke-width="1.19981" stroke-miterlimit="10" stroke-linecap="round" stroke-linejoin="round"/>
</svg>
