<svg width="16" height="16" viewBox="0 0 16 16" fill="none" xmlns="http://www.w3.org/2000/svg">
<path d="M10.2675 6.58589L7.20751 3.52589C7.0826 3.40173 6.91364 3.33203 6.73751 3.33203C6.56139 3.33203 6.39242 3.40173 6.26751 3.52589C6.20503 3.58787 6.15543 3.6616 6.12158 3.74284C6.08774 3.82408 6.07031 3.91122 6.07031 3.99923C6.07031 4.08723 6.08774 4.17437 6.12158 4.25561C6.15543 4.33685 6.20503 4.41058 6.26751 4.47256L9.33418 7.52589C9.39666 7.58787 9.44626 7.6616 9.48011 7.74284C9.51395 7.82408 9.53138 7.91122 9.53138 7.99923C9.53138 8.08723 9.51395 8.17437 9.48011 8.25561C9.44626 8.33685 9.39666 8.41059 9.33418 8.47256L6.26751 11.5259C6.14198 11.6505 6.0711 11.82 6.07047 11.9969C6.06985 12.1738 6.13953 12.3437 6.26418 12.4692C6.38883 12.5948 6.55825 12.6656 6.73515 12.6663C6.91206 12.6669 7.08198 12.5972 7.20751 12.4726L10.2675 9.41256C10.642 9.03756 10.8524 8.52923 10.8524 7.99923C10.8524 7.46923 10.642 6.96089 10.2675 6.58589Z" fill="#A6A6A6"/>
</svg>
