<svg width="25" height="24" viewBox="0 0 25 24" fill="none" xmlns="http://www.w3.org/2000/svg">
<path d="M13.9001 11.2892C13.9939 11.3822 14.0683 11.4928 14.119 11.6146C14.1698 11.7365 14.1959 11.8672 14.1959 11.9992C14.1959 12.1312 14.1698 12.2619 14.119 12.3838C14.0683 12.5056 13.9939 12.6162 13.9001 12.7092L9.31014 17.2892C9.21641 17.3822 9.14202 17.4928 9.09125 17.6146C9.04048 17.7365 9.01434 17.8672 9.01434 17.9992C9.01434 18.1312 9.04048 18.2619 9.09125 18.3838C9.14202 18.5056 9.21641 18.6162 9.31014 18.7092C9.4975 18.8955 9.75095 19 10.0151 19C10.2793 19 10.5328 18.8955 10.7201 18.7092L15.3101 14.1192C15.8719 13.5567 16.1875 12.7942 16.1875 11.9992C16.1875 11.2042 15.8719 10.4417 15.3101 9.87921L10.7201 5.28921C10.5339 5.10446 10.2825 5.00031 10.0201 4.99921C9.88853 4.99845 9.75807 5.02367 9.63623 5.07343C9.51439 5.1232 9.40358 5.19653 9.31014 5.28921C9.21641 5.38217 9.14202 5.49277 9.09125 5.61463C9.04048 5.73649 9.01434 5.86719 9.01434 5.99921C9.01434 6.13122 9.04048 6.26192 9.09125 6.38378C9.14202 6.50564 9.21641 6.61624 9.31014 6.70921L13.9001 11.2892Z" fill="#1E1E1E"/>
</svg>
