<svg width="16" height="16" viewBox="0 0 16 16" fill="none" xmlns="http://www.w3.org/2000/svg">
<g clip-path="url(#clip0_4094_3377)">
<path d="M13.9987 2.66667H11.932C11.7773 1.91428 11.3679 1.23823 10.7729 0.752479C10.1778 0.266727 9.4335 0.000969683 8.66536 0L7.33203 0C6.56389 0.000969683 5.81958 0.266727 5.22453 0.752479C4.62948 1.23823 4.2201 1.91428 4.06536 2.66667H1.9987C1.82189 2.66667 1.65232 2.7369 1.52729 2.86193C1.40227 2.98695 1.33203 3.15652 1.33203 3.33333C1.33203 3.51014 1.40227 3.67971 1.52729 3.80474C1.65232 3.92976 1.82189 4 1.9987 4H2.66536V12.6667C2.66642 13.5504 3.01795 14.3976 3.64284 15.0225C4.26774 15.6474 5.11497 15.9989 5.9987 16H9.9987C10.8824 15.9989 11.7297 15.6474 12.3546 15.0225C12.9794 14.3976 13.331 13.5504 13.332 12.6667V4H13.9987C14.1755 4 14.3451 3.92976 14.4701 3.80474C14.5951 3.67971 14.6654 3.51014 14.6654 3.33333C14.6654 3.15652 14.5951 2.98695 14.4701 2.86193C14.3451 2.7369 14.1755 2.66667 13.9987 2.66667ZM7.33203 1.33333H8.66536C9.07888 1.33384 9.48212 1.46225 9.81977 1.70096C10.1574 1.93967 10.413 2.27699 10.5514 2.66667H5.44603C5.58442 2.27699 5.83996 1.93967 6.17762 1.70096C6.51528 1.46225 6.91851 1.33384 7.33203 1.33333ZM11.9987 12.6667C11.9987 13.1971 11.788 13.7058 11.4129 14.0809C11.0378 14.456 10.5291 14.6667 9.9987 14.6667H5.9987C5.46826 14.6667 4.95956 14.456 4.58448 14.0809C4.20941 13.7058 3.9987 13.1971 3.9987 12.6667V4H11.9987V12.6667Z" fill="#4F4F4F"/>
<path d="M6.66667 12.0013C6.84348 12.0013 7.01304 11.9311 7.13807 11.806C7.26309 11.681 7.33333 11.5114 7.33333 11.3346V7.33463C7.33333 7.15782 7.26309 6.98825 7.13807 6.86323C7.01304 6.73821 6.84348 6.66797 6.66667 6.66797C6.48985 6.66797 6.32029 6.73821 6.19526 6.86323C6.07024 6.98825 6 7.15782 6 7.33463V11.3346C6 11.5114 6.07024 11.681 6.19526 11.806C6.32029 11.9311 6.48985 12.0013 6.66667 12.0013Z" fill="#4F4F4F"/>
<path d="M9.33464 12.0013C9.51145 12.0013 9.68102 11.9311 9.80605 11.806C9.93107 11.681 10.0013 11.5114 10.0013 11.3346V7.33463C10.0013 7.15782 9.93107 6.98825 9.80605 6.86323C9.68102 6.73821 9.51145 6.66797 9.33464 6.66797C9.15783 6.66797 8.98826 6.73821 8.86323 6.86323C8.73821 6.98825 8.66797 7.15782 8.66797 7.33463V11.3346C8.66797 11.5114 8.73821 11.681 8.86323 11.806C8.98826 11.9311 9.15783 12.0013 9.33464 12.0013Z" fill="#4F4F4F"/>
</g>
<defs>
<clipPath id="clip0_4094_3377">
<rect width="16" height="16" fill="white"/>
</clipPath>
</defs>
</svg>
