<svg width="40" height="41" viewBox="0 0 40 41" fill="none" xmlns="http://www.w3.org/2000/svg">
<g clip-path="url(#clip0_4392_18180)">
<path d="M30.6652 12.7975C30.3637 12.7115 30.0885 12.5515 29.8647 12.332C29.6408 12.1125 29.4754 11.8405 29.3835 11.5408C28.8731 9.8109 28.0171 8.20251 26.8671 6.81299C25.7172 5.42346 24.2973 4.28169 22.6933 3.45676C21.0894 2.63183 19.3348 2.14091 17.5356 2.01368C15.7365 1.88646 13.9302 2.12558 12.2261 2.71659C10.5221 3.3076 8.95563 4.23819 7.6216 5.45207C6.28758 6.66595 5.2137 8.13787 4.46495 9.77875C3.71621 11.4196 3.30817 13.1954 3.26552 14.9985C3.22287 16.8017 3.5465 18.5947 4.21683 20.2692C4.37082 20.6215 4.40398 21.015 4.31113 21.3881C4.21829 21.7613 4.00465 22.0933 3.70349 22.3325C2.37637 23.3175 1.34024 24.6429 0.704747 26.1686C0.0692562 27.6942 -0.141945 29.3633 0.0934949 30.9992C0.460917 33.2106 1.60904 35.2171 3.32946 36.6543C5.04989 38.0916 7.22861 38.8644 9.47016 38.8325H18.3318C18.7739 38.8325 19.1978 38.6569 19.5103 38.3443C19.8229 38.0318 19.9985 37.6079 19.9985 37.1658C19.9985 36.7238 19.8229 36.2999 19.5103 35.9873C19.1978 35.6748 18.7739 35.4992 18.3318 35.4992H9.47016C8.03063 35.5341 6.62621 35.0522 5.51143 34.1407C4.39665 33.2293 3.64528 31.9486 3.39349 30.5308C3.23382 29.4887 3.36323 28.4228 3.76761 27.4491C4.172 26.4755 4.83585 25.6315 5.68683 25.0092C6.5807 24.3411 7.2273 23.395 7.52505 22.3195C7.82281 21.2441 7.75484 20.1001 7.33183 19.0675C6.49542 16.8587 6.45241 14.4279 7.21016 12.1908C7.81549 10.4385 8.89947 8.89062 10.3393 7.72267C11.7791 6.55472 13.5173 5.81334 15.3568 5.5825C15.7835 5.52756 16.2133 5.49973 16.6435 5.49916C18.7986 5.49205 20.898 6.18321 22.6274 7.46915C24.3568 8.75508 25.6232 10.5666 26.2368 12.6325C26.4764 13.4198 26.908 14.1351 27.4928 14.7141C28.0776 15.2931 28.7972 15.7175 29.5868 15.9492C31.5193 16.5207 33.2311 17.6689 34.493 19.2402C35.7549 20.8114 36.5067 22.7307 36.6477 24.741C36.7887 26.7513 36.3123 28.7567 35.2821 30.4887C34.252 32.2207 32.7173 33.5967 30.8835 34.4325C30.6121 34.5714 30.3852 34.7839 30.2287 35.0456C30.0723 35.3073 29.9925 35.6076 29.9985 35.9125C29.9952 36.1883 30.0613 36.4605 30.1907 36.7041C30.32 36.9477 30.5085 37.1549 30.7387 37.3067C30.969 37.4585 31.2337 37.55 31.5086 37.5729C31.7834 37.5957 32.0596 37.5492 32.3118 37.4375C39.2018 34.1258 42.9452 25.4142 37.1118 16.9975C35.5056 14.9024 33.2306 13.4202 30.6652 12.7975Z" fill="#A6A6A6"/>
<path d="M31.18 28.3467C31.4924 28.0342 31.668 27.6104 31.668 27.1684C31.668 26.7265 31.4924 26.3026 31.18 25.9901L28.5367 23.3467C27.599 22.4094 26.3275 21.8828 25.0017 21.8828C23.6758 21.8828 22.4043 22.4094 21.4667 23.3467L18.8233 25.9901C18.5197 26.3044 18.3517 26.7254 18.3555 27.1624C18.3593 27.5994 18.5346 28.0174 18.8436 28.3264C19.1526 28.6355 19.5707 28.8107 20.0077 28.8145C20.4446 28.8183 20.8657 28.6503 21.18 28.3467L23.335 26.1917V38.8351C23.335 39.2771 23.5106 39.701 23.8231 40.0136C24.1357 40.3262 24.5596 40.5017 25.0017 40.5017C25.4437 40.5017 25.8676 40.3262 26.1802 40.0136C26.4927 39.701 26.6683 39.2771 26.6683 38.8351V26.1917L28.8233 28.3467C29.1359 28.6592 29.5597 28.8347 30.0017 28.8347C30.4436 28.8347 30.8674 28.6592 31.18 28.3467Z" fill="#A6A6A6"/>
</g>
<defs>
<clipPath id="clip0_4392_18180">
<rect width="40" height="40" fill="white" transform="translate(0 0.5)"/>
</clipPath>
</defs>
</svg>
