<svg width="16" height="16" viewBox="0 0 16 16" fill="none" xmlns="http://www.w3.org/2000/svg">
<g clip-path="url(#clip0_4419_2715)">
<path d="M10.665 5.33191C10.54 5.20693 10.3704 5.13672 10.1937 5.13672C10.0169 5.13672 9.84735 5.20693 9.72233 5.33191L7.99833 7.05591L6.27434 5.33191C6.1486 5.21047 5.9802 5.14327 5.8054 5.14479C5.63061 5.14631 5.4634 5.21643 5.33979 5.34003C5.21619 5.46364 5.14608 5.63084 5.14456 5.80564C5.14304 5.98044 5.21023 6.14884 5.33167 6.27458L7.05567 7.99858L5.33167 9.72258C5.21023 9.84831 5.14304 10.0167 5.14456 10.1915C5.14608 10.3663 5.21619 10.5335 5.33979 10.6571C5.4634 10.7807 5.63061 10.8508 5.8054 10.8524C5.9802 10.8539 6.1486 10.7867 6.27434 10.6652L7.99833 8.94124L9.72233 10.6652C9.84807 10.7867 10.0165 10.8539 10.1913 10.8524C10.3661 10.8508 10.5333 10.7807 10.6569 10.6571C10.7805 10.5335 10.8506 10.3663 10.8521 10.1915C10.8536 10.0167 10.7864 9.84831 10.665 9.72258L8.941 7.99858L10.665 6.27458C10.79 6.14956 10.8602 5.98002 10.8602 5.80324C10.8602 5.62647 10.79 5.45693 10.665 5.33191Z" fill="#CB3A31"/>
<path d="M8 0C6.41775 0 4.87104 0.469192 3.55544 1.34824C2.23985 2.22729 1.21447 3.47672 0.608967 4.93853C0.00346629 6.40034 -0.15496 8.00887 0.153721 9.56072C0.462403 11.1126 1.22433 12.538 2.34315 13.6569C3.46197 14.7757 4.88743 15.5376 6.43928 15.8463C7.99113 16.155 9.59966 15.9965 11.0615 15.391C12.5233 14.7855 13.7727 13.7602 14.6518 12.4446C15.5308 11.129 16 9.58225 16 8C15.9977 5.87897 15.1541 3.84547 13.6543 2.34568C12.1545 0.845886 10.121 0.00229405 8 0V0ZM8 14.6667C6.68146 14.6667 5.39253 14.2757 4.2962 13.5431C3.19987 12.8106 2.34539 11.7694 1.84081 10.5512C1.33622 9.33305 1.2042 7.99261 1.46144 6.6994C1.71867 5.40619 2.35361 4.21831 3.28596 3.28596C4.21831 2.35361 5.4062 1.71867 6.6994 1.46143C7.99261 1.2042 9.33305 1.33622 10.5512 1.8408C11.7694 2.34539 12.8106 3.19987 13.5431 4.2962C14.2757 5.39253 14.6667 6.68146 14.6667 8C14.6647 9.76752 13.9617 11.4621 12.7119 12.7119C11.4621 13.9617 9.76752 14.6647 8 14.6667Z" fill="#CB3A31"/>
</g>
<defs>
<clipPath id="clip0_4419_2715">
<rect width="16" height="16" fill="white"/>
</clipPath>
</defs>
</svg>
